name ./resultDataOpenSim/trcMotMarkerGrf/sub06/grf-05-03.mot
datacolumns 19
datarows 10
range 1.04000000 1.07600000
endheader

                time	     ground_force_vx	     ground_force_vy	     ground_force_vz	     ground_force_px	     ground_force_py	     ground_force_pz	   l_ground_force_vx	   l_ground_force_vy	   l_ground_force_vz	   l_ground_force_px	   l_ground_force_py	   l_ground_force_pz	     ground_torque_x	     ground_torque_y	     ground_torque_z	   l_ground_torque_x	   l_ground_torque_y	   l_ground_torque_z	
          1.04000000	          0.00000000	          0.00000000	          0.00000000	          0.00000000	          0.00000000	          0.00000000	         46.44391160	        459.82440377	         14.42738321	          0.06043992	         -0.10000000	          0.03468328	          0.00000000	          0.00000000	          0.00000000	          0.00000000	         -1.14233799	          0.00000000	
          1.04400000	          0.00000000	          0.00000000	          0.00000000	          0.00000000	          0.00000000	          0.00000000	         50.28512094	        482.61408545	         15.37385346	          0.06093689	         -0.10000000	          0.03481668	          0.00000000	          0.00000000	          0.00000000	          0.00000000	         -1.24085765	          0.00000000	
          1.04800000	          0.00000000	          0.00000000	          0.00000000	          0.00000000	          0.00000000	          0.00000000	         54.54423389	        506.07752495	         16.27264843	          0.06143657	         -0.10000000	          0.03499211	          0.00000000	          0.00000000	          0.00000000	          0.00000000	         -1.33884715	          0.00000000	
          1.05200000	          0.00000000	          0.00000000	          0.00000000	          0.00000000	          0.00000000	          0.00000000	         59.29239527	        529.97844747	         17.09309176	          0.06193066	         -0.10000000	          0.03520522	          0.00000000	          0.00000000	          0.00000000	          0.00000000	         -1.43504383	          0.00000000	
          1.05600000	          0.00000000	          0.00000000	          0.00000000	          0.00000000	          0.00000000	          0.00000000	         64.58420793	        554.04915886	         17.82948947	          0.06242215	         -0.10000000	          0.03543464	          0.00000000	          0.00000000	          0.00000000	          0.00000000	         -1.52790182	          0.00000000	
          1.06000000	          0.00000000	          0.00000000	          0.00000000	          0.00000000	          0.00000000	          0.00000000	         70.43828624	        578.02298253	         18.50989871	          0.06292762	         -0.10000000	          0.03567113	          0.00000000	          0.00000000	          0.00000000	          0.00000000	         -1.61561746	          0.00000000	
          1.06400000	          0.00000000	          0.00000000	          0.00000000	          0.00000000	          0.00000000	          0.00000000	         76.84384815	        601.64377060	         19.16411201	          0.06343769	         -0.10000000	          0.03590847	          0.00000000	          0.00000000	          0.00000000	          0.00000000	         -1.69646721	          0.00000000	
          1.06800000	          0.00000000	          0.00000000	          0.00000000	          0.00000000	          0.00000000	          0.00000000	         83.77534528	        624.67817573	         19.78153011	          0.06390366	         -0.10000000	          0.03612644	          0.00000000	          0.00000000	          0.00000000	          0.00000000	         -1.76934002	          0.00000000	
          1.07200000	          0.00000000	          0.00000000	          0.00000000	          0.00000000	          0.00000000	          0.00000000	         91.19787786	        646.94292728	         20.30974863	          0.06427414	         -0.10000000	          0.03630077	          0.00000000	          0.00000000	          0.00000000	          0.00000000	         -1.83423036	          0.00000000	
          1.07600000	          0.00000000	          0.00000000	          0.00000000	          0.00000000	          0.00000000	          0.00000000	         99.05834685	        668.33209673	         20.69297972	          0.06453596	         -0.10000000	          0.03642198	          0.00000000	          0.00000000	          0.00000000	          0.00000000	         -1.89250080	          0.00000000	
